<svg width="461" height="81" viewBox="0 0 461 81" fill="none" xmlns="http://www.w3.org/2000/svg">
<path fill-rule="evenodd" clip-rule="evenodd" d="M246.101 80.7004C270.179 80.7004 287.636 63.6004 287.636 39.4004C287.636 16.8004 267.671 0.900391 246.101 0.900391C224.531 0.900391 204.566 16.8004 204.566 39.4004C204.566 63.6004 222.022 80.7004 246.101 80.7004ZM246 61.8004C234.363 61.8004 224.832 52.4004 224.832 39.5004C224.832 29.2004 234.463 19.7004 246 19.7004C257.638 19.7004 267.169 29.2004 267.169 39.5004C267.169 52.4004 257.638 61.8004 246 61.8004ZM31.5025 17.6004C36.3182 17.6004 40.8329 19.6004 44.4446 22.6004L52.1698 7.6004C45.5482 3.8004 36.2178 1.40039 28.6934 1.40039C13.6444 1.40039 2.80914 11.3004 2.80914 26.5004C2.80914 41.0004 10.8353 44.1004 23.0751 47.7004C23.3156 47.7689 23.5672 47.8393 23.8278 47.9123L23.8316 47.9133C28.1382 49.119 34.9136 51.0158 34.9136 56.2004C34.9136 61.4004 30.0979 63.7004 25.4829 63.7004C18.761 63.7004 13.0424 60.3004 8.12644 56.0004L0 71.5004C7.62481 76.8004 16.9552 80.0004 26.3859 80.0004C33.9103 80.0004 41.7358 78.0004 47.6551 73.0004C53.5743 68.0004 55.3802 60.3004 55.3802 52.9004C55.3802 40.8004 47.2538 35.6004 36.8198 32.5004L31.8035 31.0004C28.4927 30.0004 23.1754 28.3004 23.1754 23.9004C23.1754 19.7004 27.8908 17.6004 31.5025 17.6004ZM91.899 32.3004V19.8004L115.175 19.9004V3.40039H72.4357V78.2004H115.175V61.7004H91.899V48.8004H113.87V32.3004H91.899ZM129.622 3.40039H157.312C178.18 3.40039 195.436 19.8004 195.436 40.8004C195.436 61.8004 178.079 78.2004 157.312 78.2004H129.622V3.40039ZM149.185 61.7004H153.6C165.238 61.7004 175.17 55.3004 175.17 40.8004C175.17 27.4004 166.341 19.9004 153.8 19.9004H149.185V61.7004ZM297.97 3.40039H317.533L353.249 49.2004H353.45V3.40039H373.014V78.2004H353.45L317.734 32.3004H317.533V78.2004H297.97V3.40039ZM403.212 78.2004L408.429 65.2004H435.317L440.233 78.2004H461L432.708 3.40039H411.439L382.545 78.2004H403.212ZM421.873 26.5004H422.073L430.1 50.3004H413.847L421.873 26.5004Z" fill="white"/>
</svg>
