<svg width="137" height="16" viewBox="0 0 137 16" fill="none" xmlns="http://www.w3.org/2000/svg">
<path d="M6.62662 10.695H4.75762L4.00162 13.929H1.75462L2.51062 10.695H0.956617L1.41862 8.658H2.99362L3.51862 6.432H2.00662L2.46862 4.395H4.00162L4.73662 1.371H6.96262L6.24862 4.395H8.11762L8.85262 1.371H11.0786L10.3646 4.395H11.8766L11.3516 6.432H9.88162L9.35662 8.658H10.8056L10.3016 10.695H8.87362L8.11762 13.929H5.87062L6.62662 10.695ZM5.24062 8.658H7.10962L7.63462 6.432H5.76562L5.24062 8.658ZM18.5627 8.931L18.9407 11.43H19.0457L19.4657 8.91L22.2797 0.299999H25.3037L19.8437 15.105H17.7857L12.2837 0.299999H15.6227L18.5627 8.931ZM26.6595 0.299999H29.5365V15H26.6595V0.299999ZM38.6958 11.052C38.6958 10.604 38.5278 10.24 38.1918 9.96C37.8698 9.68 37.4568 9.428 36.9528 9.204C36.4628 8.966 35.9238 8.728 35.3358 8.49C34.7618 8.238 34.2228 7.937 33.7188 7.587C33.2288 7.223 32.8158 6.775 32.4797 6.243C32.1578 5.711 31.9968 5.032 31.9968 4.206C31.9968 3.492 32.1158 2.876 32.3538 2.358C32.5918 1.826 32.9278 1.385 33.3618 1.035C33.8098 0.684999 34.3348 0.425999 34.9368 0.258C35.5388 0.0899992 36.2108 0.00599903 36.9528 0.00599903C37.8068 0.00599903 38.6118 0.0829993 39.3678 0.237C40.1238 0.377 40.7468 0.586999 41.2368 0.866999L40.3338 3.282C40.0258 3.086 39.5638 2.911 38.9478 2.757C38.3318 2.589 37.6668 2.505 36.9528 2.505C36.2808 2.505 35.7628 2.638 35.3988 2.904C35.0488 3.17 34.8738 3.527 34.8738 3.975C34.8738 4.395 35.0348 4.745 35.3568 5.025C35.6928 5.305 36.1058 5.564 36.5958 5.802C37.0998 6.04 37.6388 6.285 38.2128 6.537C38.8008 6.789 39.3398 7.097 39.8298 7.461C40.3338 7.811 40.7468 8.252 41.0688 8.784C41.4048 9.302 41.5728 9.953 41.5728 10.737C41.5728 11.521 41.4398 12.2 41.1738 12.774C40.9218 13.334 40.5578 13.803 40.0818 14.181C39.6198 14.559 39.0528 14.839 38.3808 15.021C37.7228 15.203 36.9948 15.294 36.1968 15.294C35.1468 15.294 34.2228 15.196 33.4248 15C32.6268 14.804 32.0388 14.608 31.6608 14.412L32.5848 11.955C32.7388 12.039 32.9348 12.13 33.1728 12.228C33.4248 12.326 33.7048 12.417 34.0128 12.501C34.3208 12.585 34.6428 12.655 34.9788 12.711C35.3288 12.767 35.6858 12.795 36.0498 12.795C36.9038 12.795 37.5548 12.655 38.0028 12.375C38.4648 12.081 38.6958 11.64 38.6958 11.052ZM43.7835 0.299999H46.6605V15H43.7835V0.299999ZM59.9148 2.862H55.6308V15H52.7538V2.862H48.4488V0.299999H59.9148V2.862ZM67.7553 11.052C67.7553 10.604 67.5873 10.24 67.2513 9.96C66.9293 9.68 66.5163 9.428 66.0123 9.204C65.5223 8.966 64.9833 8.728 64.3953 8.49C63.8213 8.238 63.2823 7.937 62.7783 7.587C62.2883 7.223 61.8753 6.775 61.5393 6.243C61.2173 5.711 61.0563 5.032 61.0563 4.206C61.0563 3.492 61.1753 2.876 61.4133 2.358C61.6513 1.826 61.9873 1.385 62.4213 1.035C62.8693 0.684999 63.3943 0.425999 63.9963 0.258C64.5983 0.0899992 65.2703 0.00599903 66.0123 0.00599903C66.8663 0.00599903 67.6713 0.0829993 68.4273 0.237C69.1833 0.377 69.8063 0.586999 70.2963 0.866999L69.3933 3.282C69.0853 3.086 68.6233 2.911 68.0073 2.757C67.3913 2.589 66.7263 2.505 66.0123 2.505C65.3403 2.505 64.8223 2.638 64.4583 2.904C64.1083 3.17 63.9333 3.527 63.9333 3.975C63.9333 4.395 64.0943 4.745 64.4163 5.025C64.7523 5.305 65.1653 5.564 65.6553 5.802C66.1593 6.04 66.6983 6.285 67.2723 6.537C67.8603 6.789 68.3993 7.097 68.8893 7.461C69.3933 7.811 69.8063 8.252 70.1283 8.784C70.4643 9.302 70.6323 9.953 70.6323 10.737C70.6323 11.521 70.4993 12.2 70.2333 12.774C69.9813 13.334 69.6173 13.803 69.1413 14.181C68.6793 14.559 68.1123 14.839 67.4403 15.021C66.7823 15.203 66.0543 15.294 65.2563 15.294C64.2063 15.294 63.2823 15.196 62.4843 15C61.6863 14.804 61.0983 14.608 60.7203 14.412L61.6443 11.955C61.7983 12.039 61.9943 12.13 62.2323 12.228C62.4843 12.326 62.7643 12.417 63.0723 12.501C63.3803 12.585 63.7023 12.655 64.0383 12.711C64.3883 12.767 64.7453 12.795 65.1093 12.795C65.9633 12.795 66.6143 12.655 67.0623 12.375C67.5243 12.081 67.7553 11.64 67.7553 11.052ZM72.5491 0.299999H81.2641V2.862H75.4261V6.285H80.7391V8.847H75.4261V12.438H81.3691V15H72.5491V0.299999ZM83.5207 0.299999C83.8147 0.258 84.1437 0.223 84.5077 0.194999C84.8857 0.166999 85.2707 0.146 85.6627 0.132C86.0547 0.117999 86.4327 0.110999 86.7967 0.110999C87.1747 0.0969991 87.5107 0.0899992 87.8047 0.0899992C89.1067 0.0899992 90.2197 0.271999 91.1437 0.636C92.0677 0.999999 92.8167 1.511 93.3907 2.169C93.9647 2.827 94.3847 3.611 94.6507 4.521C94.9167 5.431 95.0497 6.432 95.0497 7.524C95.0497 8.518 94.9237 9.477 94.6717 10.401C94.4197 11.325 93.9997 12.144 93.4117 12.858C92.8237 13.572 92.0467 14.146 91.0807 14.58C90.1287 15.014 88.9457 15.231 87.5317 15.231C87.3077 15.231 87.0067 15.224 86.6287 15.21C86.2647 15.196 85.8797 15.175 85.4737 15.147C85.0817 15.133 84.7037 15.112 84.3397 15.084C83.9757 15.07 83.7027 15.049 83.5207 15.021V0.299999ZM88.0357 2.652C87.7277 2.652 87.4127 2.659 87.0907 2.673C86.7827 2.687 86.5517 2.708 86.3977 2.736V12.585C86.4537 12.599 86.5447 12.613 86.6707 12.627C86.8107 12.627 86.9577 12.634 87.1117 12.648C87.2657 12.648 87.4127 12.655 87.5527 12.669C87.6927 12.669 87.7977 12.669 87.8677 12.669C88.6797 12.669 89.3517 12.529 89.8837 12.249C90.4297 11.955 90.8567 11.57 91.1647 11.094C91.4867 10.618 91.7107 10.072 91.8367 9.456C91.9627 8.826 92.0257 8.182 92.0257 7.524C92.0257 6.95 91.9697 6.376 91.8577 5.802C91.7457 5.214 91.5357 4.689 91.2277 4.227C90.9337 3.765 90.5277 3.387 90.0097 3.093C89.4917 2.799 88.8337 2.652 88.0357 2.652ZM96.6554 7.65C96.6554 5.2 97.1944 3.317 98.2724 2.001C99.3504 0.670999 100.89 0.00599903 102.892 0.00599903C103.942 0.00599903 104.859 0.187999 105.643 0.552C106.427 0.915999 107.078 1.434 107.596 2.106C108.114 2.778 108.499 3.583 108.751 4.521C109.003 5.459 109.129 6.502 109.129 7.65C109.129 10.1 108.583 11.99 107.491 13.32C106.413 14.636 104.88 15.294 102.892 15.294C101.828 15.294 100.904 15.112 100.12 14.748C99.3364 14.384 98.6854 13.866 98.1674 13.194C97.6634 12.522 97.2854 11.717 97.0334 10.779C96.7814 9.841 96.6554 8.798 96.6554 7.65ZM99.6794 7.65C99.6794 8.392 99.7424 9.078 99.8684 9.708C99.9944 10.324 100.183 10.856 100.435 11.304C100.701 11.752 101.037 12.102 101.443 12.354C101.849 12.606 102.332 12.732 102.892 12.732C103.914 12.732 104.705 12.333 105.265 11.535C105.825 10.737 106.105 9.442 106.105 7.65C106.105 6.936 106.042 6.271 105.916 5.655C105.804 5.039 105.622 4.5 105.37 4.038C105.118 3.576 104.789 3.219 104.383 2.967C103.977 2.701 103.48 2.568 102.892 2.568C101.87 2.568 101.079 2.981 100.519 3.807C99.9594 4.619 99.6794 5.9 99.6794 7.65ZM114.84 7.335L113.685 5.025H113.58L113.916 7.335V15H111.186V0.194999H113.286L118.851 8.028L119.964 10.275H120.069L119.733 8.028V0.299999H122.463V15.105H120.363L114.84 7.335ZM132.233 11.745H127.718L126.605 15H123.728L129.02 0.194999H131.141L136.433 15H133.409L132.233 11.745ZM128.453 9.435H131.603L130.511 6.159L130.07 3.849H129.965L129.524 6.18L128.453 9.435Z" fill="black"/>
</svg>
