<svg width="296" height="80" viewBox="0 0 296 80" fill="none" xmlns="http://www.w3.org/2000/svg">
<path fill-rule="evenodd" clip-rule="evenodd" d="M6.4617 7.60019C6.4617 7.90018 6.36137 8.2002 6.26104 8.50018C6.16071 8.80017 5.96006 9.10016 5.75941 9.30017C5.55883 9.50012 5.25801 9.70004 4.95715 9.89996L4.9568 9.90018C4.65582 10.0002 4.25452 10.1002 3.85321 10.1002C3.35158 10.1002 2.95027 10.0002 2.54897 9.80017L2.54871 9.80008C2.14749 9.6001 1.74629 9.40012 1.44537 9.10019C1.20722 8.86282 1.0947 8.62543 0.958702 8.3385C0.922821 8.26282 0.885307 8.18369 0.843422 8.10019C0.743095 7.7002 0.642761 7.30017 0.642761 6.80017C0.642761 5.90018 0.843414 5.20016 1.14439 4.40018C1.44537 3.70016 1.84668 3.00018 2.44864 2.50018C2.64929 2.30017 2.95027 2.00018 3.25124 1.80017C3.55222 1.60016 3.85321 1.40018 4.15419 1.30017C4.34312 1.2374 4.49253 1.13522 4.62722 1.04312C4.70709 0.988495 4.78178 0.937408 4.85648 0.900177C4.93314 0.861969 4.99515 0.838348 5.04811 0.818176C5.13378 0.785583 5.19578 0.761993 5.25777 0.700195L6.66235 2.7002C6.60202 2.73026 6.53262 2.76031 6.45687 2.79309L6.45525 2.79382C6.2794 2.86993 6.06957 2.96075 5.85974 3.10019C5.55876 3.2002 5.25778 3.40018 4.9568 3.60019C4.65582 3.8002 4.45516 4.10019 4.25451 4.40018C4.05386 4.70016 3.95354 5.00018 3.95354 5.40018C4.65582 5.40018 5.15745 5.60019 5.65908 6.00018C6.26104 6.30017 6.4617 6.90018 6.4617 7.60019ZM14.3875 7.60019C14.3875 7.90018 14.2872 8.2002 14.1868 8.50018C14.0865 8.80017 13.8858 9.10016 13.6852 9.30017C13.4846 9.50012 13.1838 9.70004 12.8829 9.89996L12.8826 9.90018C12.5816 10.0002 12.1803 10.1002 11.779 10.1002C11.2774 10.1002 10.8761 10.0002 10.4748 9.80017C10.0734 9.60016 9.67215 9.40018 9.37117 9.10019C9.17052 8.8002 8.96986 8.50018 8.7692 8.10019C8.66888 7.7002 8.56855 7.30017 8.56855 6.80017C8.56855 5.90018 8.7692 5.20016 9.07018 4.40018C9.37116 3.70016 9.77248 3.00018 10.3744 2.50018C10.5751 2.30017 10.8761 2.00018 11.177 1.80017C11.478 1.60016 11.779 1.40018 12.08 1.30017C12.2689 1.2374 12.4183 1.13522 12.553 1.04312C12.6329 0.988495 12.7076 0.937408 12.7823 0.900177C12.8589 0.861969 12.9209 0.838348 12.9739 0.818176C13.0596 0.785583 13.1216 0.761993 13.1836 0.700195L14.5881 2.7002C14.5278 2.73026 14.4584 2.76031 14.3827 2.79309L14.381 2.79382C14.2052 2.86993 13.9954 2.96075 13.7855 3.10019C13.4845 3.2002 13.1836 3.40018 12.8826 3.60019C12.5816 3.8002 12.381 4.10019 12.1803 4.40018C11.9797 4.70016 11.8793 5.00018 11.8793 5.40018C12.5816 5.40018 13.0832 5.60019 13.5849 6.00018C14.0865 6.30017 14.3875 6.90018 14.3875 7.60019ZM290.085 26.1004L290.386 25.8004C290.676 25.9159 291.032 26.165 291.359 26.3932L291.36 26.3934L291.36 26.3936C291.599 26.5604 291.822 26.716 291.991 26.8004C288.781 30.4004 285.169 33.8004 282.059 33.8004C280.152 33.8004 278.949 32.8004 278.748 31.3004C276.842 32.8004 274.936 33.8004 273.431 33.8004C271.123 33.8004 269.919 32.4004 270.12 30.5004C267.913 32.4004 265.705 33.8004 263.699 33.8004C260.589 33.8004 259.485 31.2004 261.09 28.4004L266.006 19.8004C267.712 17.0004 265.104 16.0004 259.285 23.3004L253.466 33.4004H249.653L251.058 31.0004C249.152 32.7004 247.145 33.8004 245.339 33.8004C243.433 33.8004 242.229 32.8004 242.028 31.3004C240.122 32.8004 238.216 33.8004 236.711 33.8004C234.504 33.8004 233.4 32.5004 233.4 30.8004C231.394 32.6004 229.287 33.8004 227.381 33.8004C224.271 33.8004 223.167 31.2004 224.772 28.4004L228.785 21.4004C229.287 20.6004 229.086 19.8004 228.585 19.2004L228.083 18.6004L227.615 19.2284L227.614 19.2298C225.017 22.711 223.675 24.511 222.063 26.4004C222.102 26.4767 222.125 26.5384 222.146 26.5911L222.146 26.5913C222.178 26.6768 222.202 26.7386 222.264 26.8004C218.05 31.7004 214.138 34.4004 210.225 35.6004L207.315 40.6004C204.607 45.3004 198.988 44.5004 198.988 40.9004C198.988 38.0004 202.199 36.0004 207.315 34.4004L208.319 32.7004C207.215 33.4004 205.811 33.9004 204.205 33.9004C198.788 33.9004 198.286 28.8004 200.995 24.2004L202.099 22.2004C198.988 20.6004 197.283 17.7004 197.283 14.7004C197.283 12.1004 198.487 9.5004 201.196 7.6004L202.4 9.80038C200.794 11.1004 199.992 12.8004 199.992 14.6004C199.992 16.7004 201.196 18.8004 203.403 20.0004L209.322 9.80038C211.028 6.90039 213.536 5.40039 215.643 5.40039C227.581 5.40039 221.06 23.5004 207.516 23.5004C206.714 23.5004 206.011 23.4004 205.309 23.3004L204.205 25.2004C201.898 29.1004 202.399 31.7004 205.008 31.7004C208.018 31.7004 210.325 29.1004 212.332 25.6004L212.733 24.9004H216.445L211.63 33.1004C214.639 31.8004 217.348 29.5004 220.458 25.9004L220.157 25.6004C222.386 23.024 224.376 20.2109 225.989 17.9323C226.191 17.646 226.388 17.3682 226.578 17.1004L226.277 16.7004C224.973 15.0004 225.073 12.8004 227.28 10.9004L229.287 13.1004C228.585 13.8004 228.585 14.6004 229.086 15.3004L231.193 17.9004C232.397 19.4004 232.999 20.7004 231.695 23.0004L227.882 29.6004C226.979 31.1004 227.481 31.7004 228.284 31.7004C229.989 31.7004 232.698 29.2004 235.407 26.0004L235.608 25.8004L239.32 19.5004C240.925 16.7004 243.834 15.1004 245.841 15.1004C248.349 15.1004 249.954 17.3004 249.854 18.9004H251.76L245.64 29.6004C244.737 31.1004 245.239 31.7004 246.042 31.7004C247.747 31.7004 250.456 29.2004 253.165 26.0004L253.466 25.7004C253.666 25.7004 253.767 25.8004 253.867 25.9004L259.987 15.4004H263.799L262.395 17.9004C264.301 16.0004 266.107 15.1004 267.712 15.1004C269.819 15.1004 271.324 17.2004 269.719 20.1004L264.201 29.7004C263.298 31.2004 263.799 31.8004 264.602 31.8004C266.307 31.8004 269.016 29.3004 271.725 26.1004L272.026 25.8004C272.026 25.8004 272.126 25.9004 272.227 25.9004L275.939 19.5004C277.544 16.7004 280.453 15.1004 282.46 15.1004C284.065 15.1004 285.269 16.0004 285.971 17.1004L291.59 7.5004H295.402L282.56 29.7004C281.657 31.2004 282.159 31.8004 282.962 31.8004C284.667 31.8004 287.376 29.3004 290.085 26.1004ZM215.643 8.80038C214.639 8.80038 213.335 9.70041 212.231 11.6004L206.714 21.1004H207.516C217.448 21.1004 221.662 8.80038 215.643 8.80038ZM201.998 40.4004C201.998 41.4004 203.302 41.6004 204.105 40.2004L205.811 37.2004C202.901 38.3004 201.998 39.4004 201.998 40.4004ZM237.815 31.7004C239.32 31.7004 241.627 30.0004 243.935 26.4004L246.944 21.2004C248.851 17.8004 244.737 16.9004 242.731 20.4004L237.413 29.6004C236.51 31.1004 237.012 31.7004 237.815 31.7004ZM274.534 31.7004C276.139 31.7004 278.447 30.0004 280.754 26.2004L283.664 21.2004C285.57 17.8004 281.457 16.9004 279.45 20.4004L274.133 29.6004C273.23 31.1004 273.732 31.7004 274.534 31.7004ZM34.9546 5.5004C42.479 5.5004 41.9774 15.1004 34.2523 17.7004C41.5761 22.6004 36.2588 36.2004 24.9219 36.2004C11.5785 36.2004 9.17066 21.6004 17.1968 16.5004L18.7017 18.4004C14.9896 20.8004 14.2873 26.2004 16.8958 29.8004C17.4011 29.2128 17.765 28.6252 18.1655 27.9785C18.2422 27.8548 18.3201 27.7289 18.4007 27.6004L28.634 9.90039C30.3395 7.0004 32.8477 5.5004 34.9546 5.5004ZM19.3036 32.0004C20.8085 32.8004 22.5141 33.3004 24.8216 33.3004C34.0516 33.3004 37.563 20.2004 28.634 18.3004L27.6307 18.2004L21.2098 29.3004C20.6079 30.3004 20.0059 31.2004 19.3036 32.0004ZM32.0451 10.7004L28.935 16.0004C32.8477 15.9004 34.9546 15.1004 36.4595 12.3004C38.3657 8.70038 34.8542 5.90042 32.0451 10.7004ZM69.5672 34.1002C67.0591 34.1002 65.8552 32.2002 66.4571 30.0002C63.7483 32.3002 60.6382 34.1002 57.4277 34.3002C54.2173 34.3002 52.2108 32.3002 52.3111 29.7002C49.6023 32.3002 46.1912 34.3002 42.8804 34.3002C38.3657 34.3002 36.2589 30.5002 38.6667 26.5002L42.6798 19.7002C44.285 16.9002 46.6928 15.3002 49.8029 15.3002C52.9131 15.3002 54.8193 17.9002 52.8127 21.4002L52.3111 22.3002C49.4016 27.2002 44.7866 27.7002 42.3788 26.7002L41.9775 27.4002C40.2719 30.4002 41.6765 31.9002 43.984 31.9002C46.6928 31.9002 50.2042 29.4002 52.913 26.2002L53.214 25.9002C53.2642 25.9502 53.3144 25.9752 53.3645 26.0002C53.4147 26.0252 53.4649 26.0502 53.515 26.1002L57.3274 19.6002C58.9326 16.8002 61.3405 15.2002 64.4506 15.2002C67.5607 15.2002 69.4669 17.8002 67.4604 21.3002L66.9588 22.2002H63.8486L64.3503 21.3002C66.6578 17.4002 62.745 16.7002 60.5379 20.5002L56.6251 27.3002C54.9196 30.3002 56.3241 31.8002 58.6317 31.8002C61.3405 31.8002 64.8519 29.3002 67.5607 26.1002L67.8617 25.8002C68.0623 25.9002 68.263 26.0002 68.4637 26.2002L72.2761 19.6002C73.8813 16.8002 76.7907 15.2002 78.7973 15.2002C81.3054 15.2002 82.9107 17.4002 82.8103 19.0002H85.0175L78.8976 29.7002C77.9947 31.2002 78.4963 31.8002 79.2989 31.8002C81.0045 31.8002 83.7133 29.3002 86.4221 26.1002L86.7231 25.8002C86.7732 25.8502 86.8234 25.8752 86.8735 25.9002C86.9237 25.9252 86.9739 25.9502 87.024 26.0002L93.0436 15.6002H96.856L89.4319 28.5002L89.4005 28.5502C88.894 29.3572 88.0458 30.7084 88.9303 31.1002C89.6325 31.4002 91.8397 29.9002 94.7492 27.3002L101.471 15.5002H105.283L97.157 29.7002C96.2541 31.2002 96.7557 31.8002 97.5583 31.8002C99.2639 31.8002 101.973 29.3002 104.682 26.1002L104.782 25.9002L104.682 25.8002C107.502 22.4922 110.323 18.5689 112.123 16.066L112.126 16.0616C112.501 15.5397 112.832 15.0798 113.109 14.7002L115.918 16.2002C114.444 19.1383 113.985 22.3763 113.575 25.2717C113.315 27.1065 113.074 28.8038 112.607 30.2002C114.112 29.2002 115.818 27.7002 117.222 26.1002L117.523 25.8002H117.624L121.336 19.5002C122.941 16.7002 125.349 15.1002 128.459 15.1002C131.569 15.1002 133.475 17.7002 131.469 21.2002L130.967 22.1002C128.058 27.0002 123.443 27.5002 121.035 26.5002L120.633 27.2002C118.928 30.2002 120.332 31.7002 122.64 31.7002C125.349 31.7002 128.86 29.2002 131.569 26.0002L131.87 25.7002C132.372 25.9002 132.974 26.5002 133.275 27.0002C130.164 30.6002 125.85 34.0002 121.536 34.0002C118.426 34.0002 116.52 32.2002 116.42 29.7002C114.012 31.8002 111.303 33.5002 108.494 33.9002H108.394C107.992 34.0002 107.691 34.0002 107.29 34.0002C103.779 34.0002 103.076 30.9002 103.076 30.9002L105.484 29.7002C105.484 29.7002 105.986 31.1002 107.29 31.1002C109.683 31.1002 110.138 27.9823 110.611 24.7439C110.851 23.0955 111.096 21.4158 111.604 20.1002C111.178 20.6466 110.714 21.2668 110.217 21.9327L110.216 21.9334C109.075 23.4609 107.754 25.229 106.287 26.9002C106.287 26.9502 106.312 26.9752 106.337 27.0002C106.362 27.0252 106.387 27.0502 106.387 27.1002C103.177 30.7002 99.5648 34.1002 96.4547 34.1002C94.0469 34.1002 92.843 32.5002 93.2443 30.5002C91.4384 32.2002 89.1309 34.1002 87.024 34.1002C85.1178 34.1002 84.2149 32.7002 84.6162 30.7002C82.409 32.7002 80.2018 34.1002 78.1953 34.1002C76.2891 34.1002 75.0852 33.1002 74.8846 31.6002C72.9783 33.1002 71.0721 34.1002 69.5672 34.1002ZM128.459 21.2002C130.766 17.3002 126.854 16.6002 124.646 20.4002L122.239 24.6002C123.643 25.1002 126.151 25.2002 127.957 22.1002L128.459 21.2002ZM75.5868 20.5002L70.2695 29.7002C69.3666 31.2002 69.8682 31.7002 70.6708 31.8002C72.1757 31.8002 74.4832 30.1002 76.7907 26.5002L79.8005 21.3002C81.7067 17.9002 77.5934 17.0002 75.5868 20.5002ZM49.8029 21.2002C52.1104 17.3002 48.1977 16.6002 45.9905 20.4002L43.5827 24.6002C44.9873 25.1002 47.4954 25.2002 49.3013 22.1002L49.8029 21.2002ZM175.01 34.1004C179.324 34.1004 183.638 30.7004 186.749 27.1004C186.448 26.6004 185.846 26.0004 185.344 25.8004L185.043 26.1004C182.334 29.3004 178.823 31.8004 176.114 31.8004C173.806 31.8004 172.402 30.3004 174.107 27.3004L174.509 26.6004C176.916 27.6004 181.531 27.1004 184.441 22.2004L184.943 21.3004C186.949 17.8004 185.043 15.2004 181.933 15.2004C178.823 15.2004 176.415 16.8004 174.81 19.6004L171.098 25.9004C171.098 25.9004 170.997 25.9004 170.997 25.8004L170.696 26.1004C167.987 29.3004 165.279 31.8004 163.573 31.8004C162.77 31.8004 162.269 31.2004 163.172 29.7004L168.69 20.1004C170.295 17.2004 168.79 15.1004 166.683 15.1004C165.078 15.1004 163.272 16.0004 161.366 18.0004L167.486 7.5004H163.573L152.838 26.0004C152.788 25.9504 152.713 25.9004 152.637 25.8504C152.562 25.8004 152.487 25.7504 152.437 25.7004L152.136 26.0004C149.427 29.2004 146.718 31.7004 145.013 31.7004C144.21 31.7004 143.708 31.1004 144.611 29.6004L152.738 15.4004H155.848L156.952 13.6004H153.841L157.453 7.40039H153.641L150.029 13.6004H146.618L145.514 15.4004H149.026L141.401 28.6004C139.796 31.4004 140.899 34.0004 144.009 34.0004C145.916 34.0004 147.922 32.8004 150.029 31.0004L148.524 33.6004H152.337L158.155 23.6004C163.974 16.3004 166.583 17.2004 164.978 20.0004L160.062 28.6004C158.456 31.4004 159.56 34.0004 162.67 34.0004C164.978 34.0004 167.586 32.2004 169.994 29.8004C169.994 32.3004 171.9 34.1004 175.01 34.1004ZM178.12 20.4004C180.328 16.6004 184.24 17.3004 181.933 21.2004L181.431 22.1004C179.625 25.2004 177.117 25.1004 175.713 24.6004L178.12 20.4004ZM163.272 61.8L162.971 62.1C160.262 65.3 157.554 67.8 155.848 67.8C155.045 67.8 154.544 67.2 155.447 65.7L160.965 56.1C162.57 53.2 161.065 51.1 158.958 51.1C157.353 51.1 155.547 52 153.641 53.9L155.045 51.4H151.233L145.113 62C145.013 61.95 144.938 61.9 144.862 61.85C144.787 61.8 144.712 61.75 144.611 61.7L144.31 62C142.605 63.9 140.498 64.8 138.592 64.8L142.204 58.6C144.511 54.6 142.404 50.9 138.793 50.9C135.883 50.9 133.576 52.1 131.368 55.9L129.462 59.1L127.857 61.9C127.807 61.85 127.757 61.825 127.706 61.8L127.679 61.7861C127.666 61.7796 127.654 61.7728 127.641 61.7652C127.613 61.7484 127.584 61.7282 127.556 61.7L127.255 62C124.145 65.6 121.436 67.9 118.426 69.2L128.86 51.4H125.048L118.326 63.1C115.416 65.8 113.109 67.3 112.407 67C111.522 66.6082 112.37 65.2569 112.877 64.4499L112.908 64.4L120.332 51.5H116.52L110.4 62C110.35 61.95 110.3 61.925 110.25 61.9C110.199 61.875 110.149 61.85 110.099 61.8L109.798 62.1C107.089 65.3 104.381 67.8 102.675 67.8C101.872 67.8 101.371 67.2 102.274 65.7L107.792 56.1C109.397 53.2 107.892 51.1 105.785 51.1C104.18 51.1 102.374 52 100.468 53.9L101.872 51.4H98.06L91.9401 61.9C91.8397 61.8 91.7394 61.7 91.5388 61.7L91.2378 62C88.529 65.2 85.8202 67.7 84.1146 67.7C83.312 67.7 82.8103 67.1 83.7133 65.6L89.8332 54.9H87.626C87.7263 53.3 86.1211 51.1 83.613 51.1C81.6064 51.1 78.697 52.7 77.0918 55.5L73.179 62.3C72.878 62.1 72.5771 61.9 72.3764 61.8L72.0754 62.1C69.3666 65.3 65.9555 67.8 62.2434 67.8C59.6349 67.8 58.0297 65.2 60.3372 61.3L61.4408 59.4C62.1431 59.5 62.8454 59.6 63.648 59.6C67.6611 59.6 72.2761 57.5 75.2859 52.3C76.3895 50.4 76.7908 48.7 76.7908 47.2C76.7908 43.8 74.5836 41.5 71.7744 41.5C69.6676 41.5 67.1594 43 65.4539 45.9L59.5346 56.1C57.3274 54.9 56.1235 52.8 56.1235 50.7C56.1235 48.9 56.9261 47.2 58.5314 45.9L57.3274 43.7C54.6186 45.6 53.4147 48.2 53.4147 50.8C53.4147 53.8 55.1203 56.7 58.2304 58.3L57.1268 60.3C54.418 64.9 56.0232 70 61.4408 70C65.6545 70 68.865 68.1 71.4735 65.6C70.6709 68 71.8748 70 74.5836 70C76.0885 70 77.9947 69 79.9009 67.5C80.1015 69 81.3055 70 83.2117 70C85.0175 70 87.0241 68.9 88.9303 67.2L87.5257 69.6H91.3381L97.157 59.5C102.976 52.2 105.584 53.2 103.879 56L98.9629 64.6C97.3577 67.4 98.4613 70 101.571 70C103.578 70 105.885 68.6 108.093 66.6C107.591 68.7 108.594 70 110.5 70C112.306 70 114.413 68.5 116.119 66.9L114.012 70.5C108.895 72 105.584 74.1 105.584 77C105.584 80.6 111.203 81.4 113.912 76.7L116.821 71.7C120.031 70.7 123.142 68.7 126.452 65.5C125.951 70.8 132.974 72 137.288 66.6H138.09C139.495 66.6 141.401 66.1 143.107 65.1L140.598 69.5H144.411L150.23 59.4C156.049 52.1 158.657 53.1 156.952 55.9L152.036 64.5C150.43 67.3 151.534 69.9 154.644 69.9C157.754 69.9 161.366 66.5 164.576 62.9C164.476 62.6 163.774 62 163.272 61.8ZM68.564 47.6C69.6676 45.7 70.9718 44.8 71.9751 44.8C73.3797 44.8 74.082 45.7 74.082 47.1C74.082 50.6 69.7679 57 63.8487 57H63.0461L68.564 47.6ZM82.0077 62.4C79.7002 66 77.3927 67.7 75.8878 67.7C75.0852 67.7 74.5836 67.1 75.4865 65.6L80.8038 56.4C82.8103 52.9 86.9237 53.8 85.0175 57.2L82.0077 62.4ZM110.902 76.2C110.099 77.6 108.795 77.4 108.795 76.4C108.795 75.4 109.698 74.3 112.607 73.2L110.902 76.2ZM136.585 62H136.385C135.181 62 134.177 63 134.177 64.3C134.177 64.8 134.278 65.2 134.579 65.6V65.7C132.773 68.8 128.459 68.2 130.666 64.2L133.576 59.2L135.381 56.1C138.09 51.6 141.702 53.4 139.394 57.3L136.585 62ZM250.055 61.8004C250.556 61.9004 251.258 62.5004 251.459 63.1004C248.65 66.4004 244.737 69.5004 240.925 70.2004H240.824C240.423 70.3004 240.122 70.3004 239.721 70.3004H239.721C236.209 70.3004 235.507 67.2004 235.507 67.2004L237.915 66.0004C237.915 66.0004 238.417 67.4004 239.721 67.4004C242.114 67.4004 242.569 64.2825 243.042 61.0441C243.282 59.3956 243.527 57.7159 244.035 56.4004C243.624 56.9276 243.178 57.5235 242.697 58.1653C241.538 59.7149 240.178 61.5327 238.617 63.3004C235.407 66.9004 231.795 70.3004 228.685 70.3004C225.575 70.3004 224.973 68.6004 224.973 65.4004V62.4004L220.659 69.9004H216.846L218.953 66.2004C216.245 68.5004 213.235 70.2004 210.125 70.2004C207.014 70.2004 205.008 68.3004 205.008 65.8004C202.5 68.3004 199.891 70.2004 197.483 70.2004C195.076 70.2004 193.872 68.6004 194.273 66.6004C192.467 68.3004 190.16 70.2004 188.053 70.2004C186.448 70.2004 185.545 69.2004 185.545 67.7004C183.739 69.0004 181.833 69.8004 179.926 70.1004H179.826C179.425 70.2004 179.124 70.2004 178.722 70.2004C175.603 70.2004 174.701 67.7543 174.538 67.2078C173.611 68.3559 172.819 69.3148 172.302 69.9004C172.207 69.8249 172.109 69.7494 172.009 69.6732C171.583 69.3458 171.141 69.006 170.897 68.6004C174.408 64.6004 183.137 53.0004 184.742 50.8004L187.551 52.3004C186.077 55.2385 185.618 58.4764 185.208 61.3719C184.948 63.2067 184.707 64.904 184.24 66.3004C184.544 66.0406 184.886 65.7622 185.241 65.473L185.249 65.4667L185.251 65.4646L185.252 65.4642C185.713 65.0882 186.197 64.6943 186.648 64.3004L194.072 51.6004H197.885L190.461 64.5004L190.429 64.5505C189.923 65.3575 189.075 66.7086 189.959 67.1004C190.661 67.4004 192.868 65.9004 195.778 63.3004L202.5 51.5004H206.312L198.186 65.7004C197.283 67.2004 197.784 67.8004 198.587 67.8004C200.293 67.8004 203.001 65.3004 205.71 62.1004L206.011 61.8004C206.011 61.8004 206.112 61.9004 206.212 61.9004L209.924 55.5004C211.529 52.7004 213.937 51.1004 217.047 51.1004C220.157 51.1004 222.063 53.7004 220.057 57.2004L219.555 58.1004H216.445L216.947 57.2004C219.254 53.3004 215.342 52.6004 213.134 56.4004L209.222 63.2004C207.516 66.2004 208.921 67.7004 211.228 67.7004C213.937 67.7004 217.448 65.2004 220.157 62.0004L220.458 61.7004C220.659 61.8004 220.96 62.0004 221.16 62.2004L231.996 43.4004H235.808L230.391 52.8004C234.303 49.2004 240.022 51.2004 236.51 57.3004L235.507 59.1004C233.701 62.2004 230.892 63.9004 228.183 63.6004V65.2004C228.183 67.0004 228.986 67.8004 229.789 67.8004C231.494 67.8004 234.203 65.3004 236.912 62.1004L237.213 61.8004C240.034 58.4926 242.854 54.5694 244.654 52.0665L244.654 52.0662C245.031 51.5425 245.362 51.0811 245.64 50.7004L248.449 52.2004C246.975 55.1385 246.516 58.3765 246.106 61.2719C245.846 63.1067 245.605 64.804 245.138 66.2004C246.643 65.2004 248.349 63.7004 249.754 62.1004L250.055 61.8004ZM174.702 67.0039L176.917 65.9004C176.917 65.9004 177.418 67.3004 178.722 67.3004C181.116 67.3004 181.571 64.1825 182.043 60.9441C182.284 59.2957 182.529 57.616 183.036 56.3004C182.056 57.654 177.727 63.2489 174.702 67.0039ZM227.28 58.2004L226.177 60.1004C227.08 62.6004 230.391 61.2004 231.494 59.2004L233.3 56.1004C234.705 53.8004 231.695 52.1004 227.28 58.2004ZM251.359 65.7002C250.155 65.7002 249.152 66.7002 249.152 67.9002C249.152 69.1002 250.055 70.1002 251.359 70.1002C252.563 70.1002 253.566 69.2002 253.566 67.9002C253.566 66.7002 252.563 65.7002 251.359 65.7002ZM255.372 64.2H251.559L263.498 43.5H267.311L255.372 64.2ZM280.554 65.6C280.453 65.9 280.353 66.2 280.353 66.5C280.353 67.2 280.654 67.8 281.156 68.1C281.657 68.5 282.159 68.7 282.861 68.7C282.861 69.1 282.761 69.4 282.56 69.7C282.359 70 282.159 70.3 281.858 70.5C281.557 70.7 281.256 70.9 280.955 71C280.745 71.1394 280.535 71.2303 280.359 71.3064C280.283 71.3394 280.213 71.3697 280.152 71.4L281.557 73.4C281.619 73.3382 281.681 73.3146 281.767 73.282C281.82 73.2618 281.882 73.2382 281.958 73.2C282.033 73.1628 282.108 73.1117 282.187 73.0571C282.322 72.9649 282.472 72.8628 282.66 72.8C282.961 72.7 283.262 72.5 283.563 72.3C283.864 72.1 284.165 71.8 284.366 71.6C284.968 71.1 285.369 70.4 285.67 69.7C285.971 68.9 286.172 68.2 286.172 67.3C286.172 66.8001 286.072 66.4002 285.971 66.0003L285.971 66C285.929 65.9165 285.892 65.8374 285.856 65.7617C285.72 65.4748 285.607 65.2374 285.369 65C285.068 64.7 284.667 64.5 284.266 64.3C283.864 64.1 283.463 64 282.961 64C282.56 64 282.159 64.1 281.858 64.2L281.857 64.2006C281.556 64.4004 281.256 64.6002 281.055 64.8C280.855 65 280.654 65.3 280.554 65.6ZM272.728 65.6C272.628 65.9 272.527 66.2 272.527 66.5C272.527 67.2 272.728 67.8 273.33 68.1C273.832 68.5 274.333 68.7 275.036 68.7C275.036 69.1 274.935 69.4 274.735 69.7C274.534 70 274.333 70.3 274.032 70.5C273.731 70.7 273.43 70.9 273.129 71C272.828 71.2 272.628 71.3 272.327 71.4L273.731 73.4C273.793 73.3382 273.855 73.3146 273.941 73.282C273.994 73.2618 274.056 73.2382 274.133 73.2C274.207 73.1628 274.282 73.1117 274.362 73.0571C274.497 72.9649 274.646 72.8628 274.835 72.8C275.136 72.7 275.437 72.5 275.738 72.3C276.039 72.1 276.34 71.8 276.541 71.6C277.143 71.1 277.544 70.4 277.845 69.7C278.146 68.9 278.346 68.2 278.346 67.3C278.346 66.8 278.246 66.4 278.146 66C277.945 65.6 277.744 65.3 277.544 65C277.243 64.7 276.842 64.5 276.44 64.3C276.039 64.1 275.638 64 275.136 64C274.735 64 274.333 64.1 274.032 64.2L274.032 64.2006C273.731 64.4004 273.43 64.6002 273.23 64.8C273.029 65 272.828 65.3 272.728 65.6Z" fill="white"/>
</svg>
