<svg width="189" height="45" viewBox="0 0 189 45" fill="none" xmlns="http://www.w3.org/2000/svg">
<path fill-rule="evenodd" clip-rule="evenodd" d="M28.5321 0H36.2573L35.0533 44.9H20.506L18.4995 26.4L16.493 44.9H1.84529L0.741699 0H8.36652L8.96846 37.2H9.77107L14.6871 0H22.3119L27.2279 37.2H28.0305L28.5321 0ZM60.436 37.2V45H39.4678V0H60.436V7.7H47.0926V18.5H57.7272V26.2H47.0926V37.1H60.436V37.2ZM81.9058 45V37.2H71.1709V0H63.5461V45H81.9058ZM98.1588 28.4L105.884 26.6V40.2C105.884 42.8 103.677 44.9 101.169 44.9H89.631C87.0225 44.9 84.9156 42.7 84.9156 40.2V4.7C84.9156 2.1 87.0225 0 89.631 0H101.169C103.677 0 105.884 2.1 105.884 4.7V13.8L98.1588 15.6V7.6H92.6408V37.1H98.1588V28.4ZM131.467 4.7C131.467 2.1 129.26 0 126.752 0H115.214C112.606 0 110.499 2.1 110.499 4.7V40.1C110.499 42.6 112.606 44.8 115.214 44.8H126.752C129.26 44.8 131.467 42.7 131.467 40.1V4.7ZM118.224 7.7H123.742V37.2H118.224V7.7ZM156.549 0H164.173V44.9H156.549V22.8L153.439 34.2H145.914L142.904 22.8V44.9H135.279V0H142.904L149.726 21.7L156.549 0ZM188.954 45V37.2V37.1H175.611V26.2H186.245V18.5H175.611V7.7H188.954V0H167.986V45H188.954Z" fill="#81B3D3"/>
</svg>
